<svg xmlns="http://www.w3.org/2000/svg" viewBox="0 0 30 30" enable-background="new 0 0 30 30"><path d="M4.9 17.8c3.6-1.1 7.8-2.3 10.7-4.8 2.1-1.7 3.4-6 1.6-8.3-1.6-1.9-4.2 1.9-4.6 3-1.7 4.5-1.4 9.9-2.1 14.6-.1.6.8.9 1 .3.2-.7 2.4-7.4 3.5-4.5.5 1.4.6 2.7 1.9 3.6 2.5 1.6 3.5-5 3.4-6.1 0-.5-.9-.7-1-.1-.3 1.6-.9 5 1.2 5.9 1.7.7 3.3-.2 4.1-1.7.3-.6-.5-1.1-.9-.5-.6 1-1.2 1.5-2.3 1.5-2.1 0-1.3-4-1.1-4.9-.3 0-.7-.1-1-.1.1 1.4-.1 2.5-.6 3.8-1.6.8-2.4.5-2.5-.7-.1-.5-.3-1.1-.5-1.6s-.6-.9-1.2-.9c-2.5 0-3.6 4.4-4 6.2.3.1.6.2 1 .3.4-2.4.7-4.9 1-7.3.3-2.9.3-5.8 1.8-8.4.8-1.6 1.8-1.4 2.9.7-.1 1.1-.4 2.1-.9 3-.7 1.5-2.1 2.4-3.5 3.2-2.5 1.3-5.3 2.2-8 3-.8 0-.5.9.1.8zM19.9 13.8c.6 0 .6-1 0-1s-.6 1 0 1z"/></svg>