<?xml version="1.0" encoding="utf-8"?>
<!-- Generator: Adobe Illustrator 18.0.0, SVG Export Plug-In . SVG Version: 6.00 Build 0)  -->
<!DOCTYPE svg PUBLIC "-//W3C//DTD SVG 1.1//EN" "http://www.w3.org/Graphics/SVG/1.1/DTD/svg11.dtd">
<svg version="1.1" id="Layer_1" xmlns="http://www.w3.org/2000/svg" xmlns:xlink="http://www.w3.org/1999/xlink" x="0px" y="0px"
	 viewBox="0 0 30 30" enable-background="new 0 0 30 30" xml:space="preserve">
<g>
	<g>
		<path d="M4.9,17.8c3.6-1.1,7.8-2.3,10.7-4.8c2.1-1.7,3.4-6,1.6-8.3c-1.6-1.9-4.2,1.9-4.6,3c-1.7,4.5-1.4,9.9-2.1,14.6
			c-0.1,0.6,0.8,0.9,1,0.3c0.2-0.7,2.4-7.4,3.5-4.5c0.5,1.4,0.6,2.7,1.9,3.6c2.5,1.6,3.5-5,3.4-6.1c0-0.5-0.9-0.7-1-0.1
			c-0.3,1.6-0.9,5,1.2,5.9c1.7,0.7,3.3-0.2,4.1-1.7c0.3-0.6-0.5-1.1-0.9-0.5c-0.6,1-1.2,1.5-2.3,1.5c-2.1,0-1.3-4-1.1-4.9
			c-0.3,0-0.7-0.1-1-0.1c0.1,1.4-0.1,2.5-0.6,3.8c-1.6,0.8-2.4,0.5-2.5-0.7c-0.1-0.5-0.3-1.1-0.5-1.6c-0.2-0.5-0.6-0.9-1.2-0.9
			c-2.5,0-3.6,4.4-4,6.2c0.3,0.1,0.6,0.2,1,0.3c0.4-2.4,0.7-4.9,1-7.3c0.3-2.9,0.3-5.8,1.8-8.4c0.8-1.6,1.8-1.4,2.9,0.7
			c-0.1,1.1-0.4,2.1-0.9,3c-0.7,1.5-2.1,2.4-3.5,3.2c-2.5,1.3-5.3,2.2-8,3C4,17,4.3,17.9,4.9,17.8L4.9,17.8z"/>
	</g>
</g>
<g>
	<g>
		<path d="M19.9,13.8c0.6,0,0.6-1,0-1C19.3,12.8,19.3,13.8,19.9,13.8L19.9,13.8z"/>
	</g>
</g>
</svg>
